<?xml version="1.0" standalone="no"?>
<!DOCTYPE svg PUBLIC "-//W3C//DTD SVG 20010904//EN"
 "http://www.w3.org/TR/2001/REC-SVG-20010904/DTD/svg10.dtd">
<svg version="1.0" xmlns="http://www.w3.org/2000/svg"
 width="600.000000pt" height="600.000000pt" viewBox="0 0 600.000000 600.000000"
 preserveAspectRatio="xMidYMid meet">

<g transform="translate(0.000000,600.000000) scale(0.100000,-0.100000)"
fill="#c40b0b" stroke="none">
<path d="M2105 3686 c-107 -49 -129 -193 -41 -275 l26 -24 0 -314 0 -313 90 0
90 0 0 316 0 316 30 34 c65 74 50 186 -33 248 -33 25 -121 32 -162 12z m107
-113 c36 -33 13 -93 -37 -93 -49 0 -72 55 -38 92 20 22 51 23 75 1z"/>
<path d="M5482 3673 c-47 -23 -84 -75 -89 -127 -5 -41 -15 -53 -154 -192
l-148 -148 -205 202 -206 202 -259 0 -259 0 -111 -117 -111 -118 0 -405 0
-405 108 -108 107 -107 255 0 255 0 205 205 c113 113 208 205 212 205 4 0 77
-63 162 -140 142 -130 154 -143 154 -175 0 -113 146 -187 243 -122 45 29 83
106 75 150 -14 74 -79 137 -143 137 -28 0 -54 21 -197 160 l-165 160 -123 0
-123 0 -185 -185 -185 -185 -180 0 -179 0 -43 42 -43 42 0 128 0 128 149 0
149 0 30 -29 c78 -78 212 -58 262 38 85 167 -124 328 -260 201 l-32 -30 -149
0 -149 0 0 118 0 118 43 42 43 42 179 0 179 0 182 -180 181 -180 129 0 129 0
159 159 c154 154 160 159 206 163 86 8 142 73 142 163 0 122 -130 203 -240
148z m110 -110 c35 -31 15 -93 -29 -93 -57 0 -84 64 -41 94 29 20 47 20 70 -1z
m-954 -541 c34 -44 -13 -107 -64 -84 -30 14 -38 33 -30 67 11 43 65 52 94 17z
m960 -534 c7 -7 12 -24 12 -38 0 -33 -17 -50 -50 -50 -33 0 -50 17 -50 50 0
33 17 50 50 50 14 0 31 -5 38 -12z"/>
<path d="M442 3487 l-122 -122 0 -74 c0 -64 -3 -78 -22 -99 -33 -35 -33 -149
0 -184 21 -23 22 -31 22 -214 l0 -189 123 -123 122 -122 227 0 226 0 121 128
121 127 0 370 0 370 -128 128 -127 127 -220 0 -220 0 -123 -123z m550 -124
l58 -57 0 -315 0 -315 -57 -58 -57 -58 -152 0 -152 0 -56 62 -56 61 0 139 c0
138 0 138 30 180 25 34 30 51 30 98 0 47 -5 64 -30 98 -47 65 -42 95 27 164
l57 58 150 0 150 0 58 -57z m-527 -233 c36 -40 -3 -90 -61 -76 -52 13 -34 96
21 96 12 0 30 -9 40 -20z"/>
<path d="M1437 3603 c-4 -3 -7 -239 -7 -522 l0 -516 108 -108 107 -107 208 0
c197 0 209 -1 237 -21 67 -50 174 -31 228 39 23 30 27 45 27 98 0 70 -17 102
-75 142 -58 39 -181 22 -213 -30 -11 -16 -27 -18 -172 -18 l-159 0 -43 42 -43
42 0 483 0 483 -98 0 c-54 0 -102 -3 -105 -7z m785 -1100 c22 -20 23 -51 1
-75 -33 -36 -93 -13 -93 37 0 49 55 72 92 38z"/>
<path d="M2480 3104 l0 -506 -25 -30 c-72 -86 -41 -220 62 -264 97 -42 212 23
230 128 7 44 -12 110 -37 133 -19 18 -20 31 -20 427 l0 408 78 0 77 0 78 -66
77 -66 0 -98 c0 -86 -2 -99 -21 -116 -34 -30 -49 -69 -49 -124 0 -92 57 -156
146 -166 94 -11 184 70 184 164 0 38 -35 122 -51 122 -5 0 -9 51 -8 113 l1
112 73 63 73 62 91 0 91 0 0 -401 0 -401 -30 -34 c-69 -80 -42 -211 53 -254
76 -35 150 -20 200 39 55 66 56 155 2 219 l-25 30 0 506 0 506 -207 0 -208 0
-102 -85 c-56 -47 -107 -85 -113 -85 -6 0 -54 38 -108 85 l-97 85 -207 0 -208
0 0 -506z m652 -141 c22 -20 23 -51 1 -75 -33 -36 -93 -13 -93 37 0 49 55 72
92 38z m-506 -478 c32 -49 -22 -104 -74 -76 -29 16 -37 48 -18 76 23 34 70 34
92 0z m1042 13 c19 -19 14 -63 -8 -83 -46 -41 -116 29 -75 75 20 22 64 27 83
8z"/>
</g>
</svg>
